#!Matlab matrix to amc conversion
:FULLY-SPECIFIED
:DEGREES
16
root 9.192140 16.357400 -29.724600 1.530666 1.634016 0.015561
lowerback -3.207154 0.643150 4.728929
upperback -2.958318 0.759584 2.931403
thorax -1.215596 0.325707 0.429736
lowerneck -17.968836 -2.564857 -3.300495
upperneck 31.502599 -2.279733 -0.991705
head 14.032161 -1.511066 -0.221410
rclavicle -0.000000 0.000000
rhumerus -42.514837 -10.531130 -72.825017
rradius 22.016410
rwrist -4.978653
rhand -4.292649 11.407096
rfingers 7.125020
rthumb 21.478498 -17.400242
lclavicle -0.000000 0.000000
lhumerus -47.056820 22.768949 66.892535
lradius 36.627093
lwrist -3.283071
lhand -1.687966 21.999530
lfingers 7.125020
lthumb 23.966755 50.387918
rfemur -28.060877 9.998446 26.231971
rtibia 28.801727
rfoot -18.135090 -15.451446
rtoes -6.341292
lfemur -9.915680 -1.625255 -18.014016
ltibia 50.605166
lfoot -8.284466 16.010425
ltoes -2.664909
17
root 9.191770 16.245600 -29.440800 1.655262 1.634016 0.014673
lowerback -2.972280 1.135575 5.707188
upperback -3.019019 1.416653 3.004116
thorax -1.396950 0.633715 0.010994
lowerneck -17.734535 -2.417021 -3.089528
upperneck 31.493910 -2.062089 -1.255192
head 13.894320 -1.429554 -0.320225
rclavicle -0.000000 0.000000
rhumerus -41.866450 -9.753092 -73.090401
rradius 22.439019
rwrist -6.091226
rhand -4.285974 11.776032
rfingers 7.125020
rthumb 21.485691 -17.041217
lclavicle -0.000000 0.000000
lhumerus -48.917336 24.250664 65.823194
lradius 32.820208
lwrist -3.279027
lhand -0.126019 22.214979
lfingers 7.125020
lthumb 25.462375 50.400573
rfemur -25.823377 9.923091 27.602458
rtibia 28.585149
rfoot -19.811582 -15.026733
rtoes -8.606151
lfemur -15.540761 0.339320 -16.957860
ltibia 59.003289
lfoot -6.894022 14.640526
ltoes 0.859249
18
root 9.208550 16.156600 -29.151500 1.818342 1.634016 0.035499
lowerback -2.585944 1.369021 5.914340
upperback -2.863938 1.766834 2.749654
thorax -1.399851 0.807175 -0.339303
lowerneck -18.096218 -2.069426 -2.659414
upperneck 31.727593 -1.568841 -1.583413
head 14.072973 -1.209572 -0.456919
rclavicle -0.000000 0.000000
rhumerus -39.403431 -9.007656 -73.652659
rradius 23.648202
rwrist -7.096890
rhand -4.791026 11.968006
rfingers 7.125020
rthumb 20.998395 -16.904500
lclavicle -0.000000 0.000000
lhumerus -50.907902 25.849923 63.495103
lradius 30.376111
lwrist -5.030075
lhand -0.033798 22.113924
lfingers 7.125020
lthumb 25.552224 50.284304
rfemur -24.386849 10.633062 27.771057
rtibia 28.851689
rfoot -20.775435 -15.700108
rtoes -9.274822
lfemur -20.793871 1.495617 -17.273476
ltibia 60.439432
lfoot -8.831485 14.167174
ltoes -3.127200
19
root 9.222000 16.080900 -28.855000 1.878983 1.634016 0.042623
lowerback -2.201154 1.575711 6.044359
upperback -2.710821 2.070047 2.513864
thorax -1.406196 0.957440 -0.652732
lowerneck -18.421138 -1.741363 -2.273604
upperneck 31.953298 -1.110070 -1.842350
head 14.245929 -1.002082 -0.564768
rclavicle -0.000000 0.000000
rhumerus -37.263880 -8.381920 -74.133683
rradius 24.808259
rwrist -8.046603
rhand -5.281905 12.049240
rfingers 7.125020
rthumb 20.524916 -16.862177
lclavicle -0.000000 0.000000
lhumerus -52.793713 27.379469 61.234322
lradius 28.266702
lwrist -6.635497
lhand 0.035787 22.013439
lfingers 7.125020
lthumb 25.620462 50.169857
rfemur -23.018753 11.323550 27.904103
rtibia 29.064657
rfoot -21.611006 -16.336311
rtoes -9.689657
lfemur -25.499988 2.127226 -17.561252
ltibia 61.171369
lfoot -10.619650 13.807462
ltoes -5.728621
20
root 9.232280 16.013400 -28.551200 1.869903 1.634016 0.045222
lowerback -1.813000 1.764802 6.124510
upperback -2.554617 2.345260 2.277312
thorax -1.416188 1.093863 -0.953383
lowerneck -18.731111 -1.417495 -1.904006
upperneck 32.173865 -0.659527 -2.072399
head 14.415722 -0.797536 -0.657918
rclavicle -0.000000 0.000000
rhumerus -35.229110 -7.800018 -74.601808
rradius 25.958786
rwrist -9.016540
rhand -5.769715 12.047886
rfingers 7.125020
rthumb 20.054558 -16.899421
lclavicle -0.000000 0.000000
lhumerus -54.648034 28.891300 58.978206
lradius 26.271674
lwrist -8.195465
lhand 0.084379 21.912101
lfingers 7.125020
lthumb 25.668699 50.055654
rfemur -21.673423 12.015102 28.011161
rtibia 29.287781
rfoot -22.402348 -16.974978
rtoes -9.878500
lfemur -29.994857 2.528645 -17.869599
ltibia 61.397811
lfoot -12.418351 13.529130
ltoes -8.096994
21
root 9.239730 15.970900 -28.241000 1.786204 1.634016 0.046645
lowerback -1.416529 1.944674 6.171603
upperback -2.390176 2.609690 2.020498
thorax -1.430148 1.224936 -1.264366
lowerneck -19.046950 -1.082679 -1.523708
upperneck 32.392070 -0.191436 -2.309449
head 14.584839 -0.586522 -0.748586
rclavicle -0.000000 0.000000
rhumerus -33.091140 -7.191400 -75.123537
rradius 27.139056
rwrist -10.084500
rhand -6.265489 11.963473
rfingers 7.125020
rthumb 19.576692 -17.029279
lclavicle -0.000000 0.000000
lhumerus -56.542910 30.436815 56.664242
lradius 24.182662
lwrist -9.807315
lhand 0.113125 21.808477
lfingers 7.125020
lthumb 25.698074 49.940118
rfemur -20.305951 12.728296 28.099928
rtibia 29.587828
rfoot -23.229060 -17.655902
rtoes -9.854022
lfemur -34.599151 2.887043 -18.250391
ltibia 61.180234
lfoot -14.388364 13.307218
ltoes -11.281095
22
root 9.241850 15.946000 -27.925100 1.302514 1.634016 -0.051719
lowerback -1.050401 1.759026 6.302774
upperback -2.109514 2.368788 1.753749
thorax -1.362365 1.110186 -1.668007
lowerneck -19.085930 -0.828901 -1.324337
upperneck 32.199274 0.173430 -2.462515
head 14.508509 -0.428767 -0.775464
rclavicle -0.000000 0.000000
rhumerus -31.541528 -5.818705 -75.860534
rradius 29.423311
rwrist -11.872147
rhand -6.805181 11.824819
rfingers 7.125020
rthumb 19.055246 -17.234151
lclavicle -0.000000 0.000000
lhumerus -57.314868 30.904097 55.203211
lradius 23.877001
lwrist -9.901197
lhand 0.230664 21.989551
lfingers 7.125020
lthumb 25.809421 50.115283
rfemur -16.930386 13.078235 28.596851
rtibia 27.689021
rfoot -22.731196 -18.741162
rtoes -6.309447
lfemur -36.245284 1.165251 -17.961836
ltibia 53.753478
lfoot -15.372781 14.200171
ltoes -12.692896
